<?xml version="1.0" encoding="UTF-8" standalone="no"?>
<!-- Created with Inkscape (http://www.inkscape.org/) -->

<svg
   xmlns:dc="http://purl.org/dc/elements/1.1/"
   xmlns:cc="http://creativecommons.org/ns#"
   xmlns:rdf="http://www.w3.org/1999/02/22-rdf-syntax-ns#"
   xmlns:svg="http://www.w3.org/2000/svg"
   xmlns="http://www.w3.org/2000/svg"
   xmlns:xlink="http://www.w3.org/1999/xlink"
   xmlns:sodipodi="http://sodipodi.sourceforge.net/DTD/sodipodi-0.dtd"
   xmlns:inkscape="http://www.inkscape.org/namespaces/inkscape"
   width="256"
   height="256"
   viewBox="0 0 67.733332 67.733335"
   version="1.1"
   id="svg8"
   inkscape:version="0.92.1 unknown"
   sodipodi:docname="arrow.svg"
   inkscape:export-filename="/home/vit/ProjectG70/godot/BabylonTower2/textures/2d/arrow_020.png"
   inkscape:export-xdpi="96.000008"
   inkscape:export-ydpi="96.000008">
  <defs
     id="defs2">
    <linearGradient
       inkscape:collect="always"
       id="linearGradient4640">
      <stop
         style="stop-color:#c8e8e8;stop-opacity:0.48168498"
         offset="0"
         id="stop4636" />
      <stop
         style="stop-color:#898989;stop-opacity:1"
         offset="1"
         id="stop4638" />
    </linearGradient>
    <linearGradient
       inkscape:collect="always"
       id="linearGradient4760">
      <stop
         style="stop-color:#c8e8e8;stop-opacity:0.48168498"
         offset="0"
         id="stop4756" />
      <stop
         style="stop-color:#5e6685;stop-opacity:1"
         offset="1"
         id="stop4758" />
    </linearGradient>
    <linearGradient
       inkscape:collect="always"
       id="linearGradient4698">
      <stop
         style="stop-color:#000000;stop-opacity:1;"
         offset="0"
         id="stop4694" />
      <stop
         style="stop-color:#000000;stop-opacity:0;"
         offset="1"
         id="stop4696" />
    </linearGradient>
    <linearGradient
       id="linearGradient4692"
       inkscape:collect="always">
      <stop
         id="stop4688"
         offset="0"
         style="stop-color:#c8e8e8;stop-opacity:0.48168498" />
      <stop
         id="stop4690"
         offset="1"
         style="stop-color:#a1a1a1;stop-opacity:1" />
    </linearGradient>
    <linearGradient
       inkscape:collect="always"
       id="linearGradient4529">
      <stop
         style="stop-color:#4cb3b3;stop-opacity:1"
         offset="0"
         id="stop4525" />
      <stop
         style="stop-color:#a1a1a1;stop-opacity:1"
         offset="1"
         id="stop4527" />
    </linearGradient>
    <linearGradient
       inkscape:collect="always"
       xlink:href="#linearGradient4529"
       id="linearGradient4531"
       x1="219.51822"
       y1="147.60742"
       x2="45.961941"
       y2="147.60742"
       gradientUnits="userSpaceOnUse" />
    <filter
       inkscape:collect="always"
       style="color-interpolation-filters:sRGB"
       id="filter4644"
       x="-0.090748902"
       width="1.1814978"
       y="-0.054883691"
       height="1.1097674">
      <feGaussianBlur
         inkscape:collect="always"
         stdDeviation="4.1394344"
         id="feGaussianBlur4646" />
    </filter>
    <linearGradient
       inkscape:collect="always"
       xlink:href="#linearGradient4692"
       id="linearGradient4648"
       gradientUnits="userSpaceOnUse"
       x1="205.1026"
       y1="144.7243"
       x2="59.14193"
       y2="145.95993"
       gradientTransform="matrix(-0.27689352,0,0,-0.27689352,65.92474,298.57226)" />
    <linearGradient
       inkscape:collect="always"
       xlink:href="#linearGradient4698"
       id="linearGradient4700"
       x1="23.052357"
       y1="138.10948"
       x2="176.26971"
       y2="136.87386"
       gradientUnits="userSpaceOnUse" />
    <linearGradient
       inkscape:collect="always"
       xlink:href="#linearGradient4760"
       id="linearGradient4754"
       gradientUnits="userSpaceOnUse"
       gradientTransform="matrix(-0.32445495,0,0,-0.32445495,71.891408,304.65982)"
       x1="388.79868"
       y1="145.95993"
       x2="72.321915"
       y2="145.95993" />
    <filter
       inkscape:collect="always"
       style="color-interpolation-filters:sRGB"
       id="filter4840"
       x="-0.090748906"
       width="1.1814978"
       y="-0.054883689"
       height="1.1097674">
      <feGaussianBlur
         inkscape:collect="always"
         stdDeviation="1.34306"
         id="feGaussianBlur4842" />
    </filter>
    <linearGradient
       inkscape:collect="always"
       xlink:href="#linearGradient4692"
       id="linearGradient4844"
       gradientUnits="userSpaceOnUse"
       gradientTransform="matrix(-0.32445495,0,0,-0.32445495,71.891408,304.65982)"
       x1="205.1026"
       y1="144.7243"
       x2="59.14193"
       y2="145.95993" />
    <filter
       inkscape:collect="always"
       style="color-interpolation-filters:sRGB"
       id="filter4840-7"
       x="-0.090748906"
       width="1.1814978"
       y="-0.054883689"
       height="1.1097674">
      <feGaussianBlur
         inkscape:collect="always"
         stdDeviation="1.34306"
         id="feGaussianBlur4842-5" />
    </filter>
    <linearGradient
       inkscape:collect="always"
       xlink:href="#linearGradient4692"
       id="linearGradient4648-3"
       gradientUnits="userSpaceOnUse"
       x1="205.1026"
       y1="144.7243"
       x2="59.14193"
       y2="145.95993"
       gradientTransform="matrix(-0.27689352,0,0,-0.27689352,57.113344,69.305618)" />
    <filter
       inkscape:collect="always"
       style="color-interpolation-filters:sRGB"
       id="filter4644-2"
       x="-0.090748899"
       width="1.1814978"
       y="-0.054883692"
       height="1.1097674">
      <feGaussianBlur
         inkscape:collect="always"
         stdDeviation="4.1394344"
         id="feGaussianBlur4646-9" />
    </filter>
    <linearGradient
       inkscape:collect="always"
       xlink:href="#linearGradient4698"
       id="linearGradient4588"
       gradientUnits="userSpaceOnUse"
       x1="23.052357"
       y1="138.10948"
       x2="176.26971"
       y2="136.87386" />
    <linearGradient
       inkscape:collect="always"
       xlink:href="#linearGradient4692"
       id="linearGradient4590"
       gradientUnits="userSpaceOnUse"
       gradientTransform="matrix(-0.32445495,0,0,-0.32445495,71.891408,304.65982)"
       x1="205.1026"
       y1="144.7243"
       x2="59.14193"
       y2="145.95993" />
    <linearGradient
       inkscape:collect="always"
       xlink:href="#linearGradient4640"
       id="linearGradient4629"
       gradientUnits="userSpaceOnUse"
       x1="60.102013"
       y1="33.866665"
       x2="27.518551"
       y2="33.866665"
       gradientTransform="matrix(3.7795276,0,0,3.7795276,-4.8438977,0)" />
  </defs>
  <sodipodi:namedview
     id="base"
     pagecolor="#ffffff"
     bordercolor="#666666"
     borderopacity="1.0"
     inkscape:pageopacity="0.0"
     inkscape:pageshadow="2"
     inkscape:zoom="1.4597888"
     inkscape:cx="205.15403"
     inkscape:cy="17.461209"
     inkscape:document-units="mm"
     inkscape:current-layer="layer3"
     showgrid="false"
     units="px"
     showguides="true"
     inkscape:guide-bbox="true"
     inkscape:snap-global="true"
     inkscape:window-width="1920"
     inkscape:window-height="1055"
     inkscape:window-x="0"
     inkscape:window-y="0"
     inkscape:window-maximized="1">
    <sodipodi:guide
       position="0,33.866667"
       orientation="0,1"
       id="guide4496"
       inkscape:locked="false"
       inkscape:label=""
       inkscape:color="rgb(0,0,255)" />
  </sodipodi:namedview>
  <metadata
     id="metadata5">
    <rdf:RDF>
      <cc:Work
         rdf:about="">
        <dc:format>image/svg+xml</dc:format>
        <dc:type
           rdf:resource="http://purl.org/dc/dcmitype/StillImage" />
        <dc:title></dc:title>
      </cc:Work>
    </rdf:RDF>
  </metadata>
  <g
     inkscape:label="Layer 1"
     inkscape:groupmode="layer"
     id="layer1"
     transform="translate(0,-229.26665)"
     style="display:none;opacity:1">
    <path
       sodipodi:nodetypes="scccscccccs"
       inkscape:connector-curvature="0"
       id="path4610"
       d="M 88.75,37.5 C 74.10842,37.906169 70.714844,45.535156 70.714844,45.535156 L 152.14258,128 70.714844,210.46484 c 0,0 3.387944,8.03513 18.035156,8.03516 11.96429,3e-5 19.82227,-6.96484 19.82227,-6.96484 l 63.57031,-63.92774 c 0,0 8.39229,-7.42888 8.03515,-19.60742 0.35714,-12.17854 -8.03515,-19.60742 -8.03515,-19.60742 L 108.57227,44.464844 c 0,0 -6.94718,-7.322009 -19.82227,-6.964844 z"
       style="color:#000000;clip-rule:nonzero;display:inline;overflow:visible;visibility:visible;opacity:0.56999966;isolation:auto;mix-blend-mode:normal;color-interpolation:sRGB;color-interpolation-filters:linearRGB;solid-color:#000000;solid-opacity:1;fill:url(#linearGradient4700);fill-opacity:1;fill-rule:evenodd;stroke:none;stroke-width:0.99999994px;stroke-linecap:butt;stroke-linejoin:miter;stroke-miterlimit:4;stroke-dasharray:none;stroke-dashoffset:0;stroke-opacity:1;filter:url(#filter4644);color-rendering:auto;image-rendering:auto;shape-rendering:auto;text-rendering:auto;enable-background:accumulate"
       transform="matrix(-0.27689352,0,0,-0.27689352,65.92474,298.57226)" />
    <path
       style="color:#000000;clip-rule:nonzero;display:inline;overflow:visible;visibility:visible;opacity:1;isolation:auto;mix-blend-mode:normal;color-interpolation:sRGB;color-interpolation-filters:linearRGB;solid-color:#000000;solid-opacity:1;fill:url(#linearGradient4648);fill-opacity:1;fill-rule:evenodd;stroke:none;stroke-width:0.2768935px;stroke-linecap:butt;stroke-linejoin:miter;stroke-miterlimit:4;stroke-dasharray:none;stroke-dashoffset:0;stroke-opacity:1;color-rendering:auto;image-rendering:auto;shape-rendering:auto;text-rendering:auto;enable-background:accumulate"
       d="m 41.35044,288.18875 c 4.054158,-0.11246 4.993817,-2.22488 4.993817,-2.22488 L 23.797444,263.12989 46.344257,240.29591 c 0,0 -0.9381,-2.22488 -4.993817,-2.22489 -3.312836,-1e-5 -5.488659,1.92852 -5.488659,1.92852 l -17.602207,17.70118 c 0,0 -2.323771,2.05701 -2.224881,5.42917 -0.09889,3.37215 2.224881,5.42916 2.224881,5.42916 l 17.602207,17.70118 c 0,0 1.923629,2.02741 5.488659,1.92852 z"
       id="path4498"
       inkscape:connector-curvature="0"
       sodipodi:nodetypes="scccscccccs" />
    <path
       sodipodi:nodetypes="scccscccccs"
       inkscape:connector-curvature="0"
       id="path4762"
       d="m 43.096031,292.49276 c 4.750533,-0.13178 5.851595,-2.60705 5.851595,-2.60705 L 22.527994,263.12959 48.947626,236.37346 c 0,0 -1.099235,-2.60704 -5.851595,-2.60705 -3.881874,-1e-5 -6.431434,2.25978 -6.431434,2.25978 l -20.625702,20.74167 c 0,0 -2.72292,2.41034 -2.607044,6.36173 -0.115876,3.95138 2.607044,6.36172 2.607044,6.36172 l 20.625702,20.74167 c 0,0 2.254047,2.37566 6.431434,2.25978 z"
       style="color:#000000;clip-rule:nonzero;display:inline;overflow:visible;visibility:visible;opacity:1;isolation:auto;mix-blend-mode:normal;color-interpolation:sRGB;color-interpolation-filters:linearRGB;solid-color:#000000;solid-opacity:1;fill:url(#linearGradient4844);fill-opacity:1;fill-rule:evenodd;stroke:none;stroke-width:0.32445493px;stroke-linecap:butt;stroke-linejoin:miter;stroke-miterlimit:4;stroke-dasharray:none;stroke-dashoffset:0;stroke-opacity:1;filter:url(#filter4840);color-rendering:auto;image-rendering:auto;shape-rendering:auto;text-rendering:auto;enable-background:accumulate"
       transform="matrix(0.8534113,0,0,0.8534113,4.5717997,38.572125)" />
  </g>
  <g
     inkscape:groupmode="layer"
     id="layer2"
     inkscape:label="Layer 2"
     style="display:none">
    <circle
       style="opacity:0.19100001;fill:#b8cdcd;fill-opacity:0.51764706;fill-rule:nonzero;stroke:none;stroke-width:0.3645834;stroke-linecap:round;stroke-linejoin:round;stroke-miterlimit:4;stroke-dasharray:none;stroke-opacity:1"
       id="path4847"
       cx="23.797445"
       cy="33.863239"
       r="7.4985557" />
  </g>
  <g
     inkscape:groupmode="layer"
     id="layer3"
     inkscape:label="Layer 3"
     style="display:inline">
    <path
       sodipodi:nodetypes="scccscccccs"
       inkscape:connector-curvature="0"
       id="path4610-1"
       d="M 88.75,37.5 C 74.10842,37.906169 70.714844,45.535156 70.714844,45.535156 L 152.14258,128 70.714844,210.46484 c 0,0 3.387944,8.03513 18.035156,8.03516 11.96429,3e-5 19.82227,-6.96484 19.82227,-6.96484 l 63.57031,-63.92774 c 0,0 8.39229,-7.42888 8.03515,-19.60742 0.35714,-12.17854 -8.03515,-19.60742 -8.03515,-19.60742 L 108.57227,44.464844 c 0,0 -6.94718,-7.322009 -19.82227,-6.964844 z"
       style="color:#000000;clip-rule:nonzero;display:inline;overflow:visible;visibility:visible;opacity:0.56999966;isolation:auto;mix-blend-mode:normal;color-interpolation:sRGB;color-interpolation-filters:linearRGB;solid-color:#000000;solid-opacity:1;fill:url(#linearGradient4588);fill-opacity:1;fill-rule:evenodd;stroke:none;stroke-width:0.99999994px;stroke-linecap:butt;stroke-linejoin:miter;stroke-miterlimit:4;stroke-dasharray:none;stroke-dashoffset:0;stroke-opacity:1;filter:url(#filter4644-2);color-rendering:auto;image-rendering:auto;shape-rendering:auto;text-rendering:auto;enable-background:accumulate"
       transform="matrix(-0.27689352,0,0,-0.27689352,57.113342,69.305613)" />
    <path
       style="color:#000000;clip-rule:nonzero;display:inline;overflow:visible;visibility:visible;opacity:1;isolation:auto;mix-blend-mode:normal;color-interpolation:sRGB;color-interpolation-filters:linearRGB;solid-color:#000000;solid-opacity:1;fill:url(#linearGradient4648-3);fill-opacity:1;fill-rule:evenodd;stroke:none;stroke-width:0.27689353px;stroke-linecap:butt;stroke-linejoin:miter;stroke-miterlimit:4;stroke-dasharray:none;stroke-dashoffset:0;stroke-opacity:1;color-rendering:auto;image-rendering:auto;shape-rendering:auto;text-rendering:auto;enable-background:accumulate"
       d="m 32.539043,58.922107 c 4.05416,-0.112459 4.993817,-2.224879 4.993817,-2.224879 L 14.986048,33.863247 37.53286,11.029268 c 0,0 -0.938099,-2.2248801 -4.993817,-2.2248902 -3.312835,-10e-6 -5.488658,1.9285202 -5.488658,1.9285202 L 9.4481784,28.434078 c 0,0 -2.323771,2.05701 -2.224881,5.429169 -0.09889,3.372152 2.224881,5.42916 2.224881,5.42916 L 27.050385,56.993588 c 0,0 1.923629,2.027409 5.488658,1.928519 z"
       id="path4498-2"
       inkscape:connector-curvature="0"
       sodipodi:nodetypes="scccscccccs" />
    <path
       sodipodi:nodetypes="scccscccccs"
       inkscape:connector-curvature="0"
       id="path4762-7"
       d="m 43.096031,292.49276 c 4.750533,-0.13178 5.851595,-2.60705 5.851595,-2.60705 L 22.527994,263.12959 48.947626,236.37346 c 0,0 -1.099235,-2.60704 -5.851595,-2.60705 -3.881874,-1e-5 -6.431434,2.25978 -6.431434,2.25978 l -20.625702,20.74167 c 0,0 -2.72292,2.41034 -2.607044,6.36173 -0.115876,3.95138 2.607044,6.36172 2.607044,6.36172 l 20.625702,20.74167 c 0,0 2.254047,2.37566 6.431434,2.25978 z"
       style="color:#000000;clip-rule:nonzero;display:inline;overflow:visible;visibility:visible;opacity:1;isolation:auto;mix-blend-mode:normal;color-interpolation:sRGB;color-interpolation-filters:linearRGB;solid-color:#000000;solid-opacity:1;fill:url(#linearGradient4590);fill-opacity:1;fill-rule:evenodd;stroke:none;stroke-width:0.32445493px;stroke-linecap:butt;stroke-linejoin:miter;stroke-miterlimit:4;stroke-dasharray:none;stroke-dashoffset:0;stroke-opacity:1;filter:url(#filter4840-7);color-rendering:auto;image-rendering:auto;shape-rendering:auto;text-rendering:auto;enable-background:accumulate"
       transform="matrix(0.85341129,0,0,0.85341129,-4.2395962,-190.69452)" />
    <path
       style="display:inline;opacity:0.19100001;fill:url(#linearGradient4629);fill-opacity:1;fill-rule:nonzero;stroke:none;stroke-width:1.37795305;stroke-linecap:round;stroke-linejoin:round;stroke-miterlimit:4;stroke-dasharray:none;stroke-opacity:1"
       d="M 124.48828 99.646484 A 28.340998 28.340998 0 0 0 96.146484 127.98633 A 28.340998 28.340998 0 0 0 124.48828 156.32812 A 28.340998 28.340998 0 0 0 152.83008 127.98633 A 28.340998 28.340998 0 0 0 124.48828 99.646484 z M 187.94336 99.646484 A 28.340998 28.340998 0 0 0 159.60156 127.98633 A 28.340998 28.340998 0 0 0 187.94336 156.32812 A 28.340998 28.340998 0 0 0 216.28516 127.98633 A 28.340998 28.340998 0 0 0 187.94336 99.646484 z "
       transform="scale(0.26458333)"
       id="path4847-9" />
  </g>
</svg>
