<?xml version="1.0" encoding="UTF-8" standalone="no"?>
<!-- Generator: Adobe Illustrator 16.0.0, SVG Export Plug-In . SVG Version: 6.00 Build 0)  -->

<svg
   xmlns:dc="http://purl.org/dc/elements/1.1/"
   xmlns:cc="http://creativecommons.org/ns#"
   xmlns:rdf="http://www.w3.org/1999/02/22-rdf-syntax-ns#"
   xmlns:svg="http://www.w3.org/2000/svg"
   xmlns="http://www.w3.org/2000/svg"
   xmlns:sodipodi="http://sodipodi.sourceforge.net/DTD/sodipodi-0.dtd"
   xmlns:inkscape="http://www.inkscape.org/namespaces/inkscape"
   version="1.1"
   id="Capa_1"
   x="0px"
   y="0px"
   width="554.625px"
   height="554.625px"
   viewBox="0 0 554.625 554.625"
   style="enable-background:new 0 0 554.625 554.625;"
   xml:space="preserve"
   sodipodi:docname="finger.svg"
   inkscape:export-filename="/home/vit/ProjectG70/godot/BabylonTower2/textures/2d/finger_down.png"
   inkscape:export-xdpi="44.31102"
   inkscape:export-ydpi="44.31102"
   inkscape:version="0.92.1 unknown"><metadata
     id="metadata4611"><rdf:RDF><cc:Work
         rdf:about=""><dc:format>image/svg+xml</dc:format><dc:type
           rdf:resource="http://purl.org/dc/dcmitype/StillImage" /><dc:title></dc:title></cc:Work></rdf:RDF></metadata><defs
     id="defs4609" /><sodipodi:namedview
     pagecolor="#868686"
     bordercolor="#666666"
     borderopacity="1"
     objecttolerance="10"
     gridtolerance="10"
     guidetolerance="10"
     inkscape:pageopacity="0"
     inkscape:pageshadow="2"
     inkscape:window-width="1920"
     inkscape:window-height="1055"
     id="namedview4607"
     showgrid="false"
     inkscape:zoom="0.78972279"
     inkscape:cx="277.9269"
     inkscape:cy="255.93554"
     inkscape:window-x="0"
     inkscape:window-y="0"
     inkscape:window-maximized="1"
     inkscape:current-layer="layer1"
     inkscape:snap-global="false" /><g
     id="g4576" /><g
     id="g4578" /><g
     id="g4580" /><g
     id="g4582" /><g
     id="g4584" /><g
     id="g4586" /><g
     id="g4588" /><g
     id="g4590" /><g
     id="g4592" /><g
     id="g4594" /><g
     id="g4596" /><g
     id="g4598" /><g
     id="g4600" /><g
     id="g4602" /><g
     id="g4604" /><g
     inkscape:groupmode="layer"
     id="layer1"
     inkscape:label="Layer 1"
     style="display:none"><path
       d="m 154.142,85.75472 c 0,-36.337 30.6,-66.938 66.938,-66.938 36.338,0 66.937,30.6 66.937,66.938 v 53.55 c 11.476,-15.3 19.125,-34.425 19.125,-53.55 -10e-4,-47.812 -38.251,-86.062 -86.063,-86.062 -47.812,0 -86.062,38.25 -86.062,86.062 0,21.038 7.65,40.163 19.125,53.55 z"
       id="path4568"
       style="fill:#ffffff"
       inkscape:connector-curvature="0" /><path
       style="opacity:0.26499999;fill:#000000;fill-opacity:1;fill-rule:nonzero;stroke:none;stroke-width:1.23379993;stroke-linecap:round;stroke-linejoin:round;stroke-miterlimit:4;stroke-dasharray:none;stroke-opacity:1"
       d="m 309.67197,520.53491 c -41.42013,-7.27148 -72.78574,-29.72977 -102.50976,-73.39865 -3.68723,-5.41709 -14.48347,-22.74281 -23.99163,-38.5016 -9.50815,-15.7588 -24.93491,-40.74007 -34.28169,-55.51394 C 100.01807,275.87365 94.189379,265.926 90.176667,252.91846 c -2.822003,-9.14775 -1.78113,-10.71698 6.160069,-9.28699 12.929864,2.32831 35.614904,18.32254 63.565634,44.81733 23.30266,22.08885 27.63022,25.72263 30.63378,25.72263 1.45081,0 4.64612,-0.86394 7.10068,-1.91986 8.17113,-3.51513 7.43536,7.29848 8.06356,-118.50957 0.30491,-61.06533 1.01546,-109.817918 1.38552,-111.182628 0.37006,-1.364712 2.49412,-4.084448 4.72013,-6.043859 3.48141,-3.06446 4.62432,-3.559817 8.17431,-3.542902 5.3632,0.02555 10.93591,2.606966 13.54848,6.275976 1.8236,2.561024 2.16631,4.430185 2.7689,15.102055 0.37823,6.698598 0.55456,51.756818 0.58529,102.972908 0.0548,91.29194 0.0908,93.17744 1.83511,96.03834 3.44963,5.65783 6.05389,6.47666 20.59872,6.47666 14.54483,0 17.14908,-0.81883 20.59871,-6.47666 1.61,-2.6406 1.77976,-4.53651 1.78465,-19.93053 0.003,-9.35678 0.26387,-26.48104 0.57977,-38.05391 l 0.57436,-21.04157 4.65965,-4.70078 c 4.44315,-4.48239 4.87806,-4.70077 9.36135,-4.70077 6.07176,0 10.37646,2.09608 13.2632,6.45826 l 2.31104,3.49222 0.51907,28.53724 c 0.49089,26.98909 0.6192,28.67133 2.36515,31.00872 4.24978,5.68944 5.63331,6.13779 19.93055,6.45863 12.5584,0.28182 13.28289,0.20133 16.27726,-1.80862 5.38325,-3.61345 5.91306,-5.70602 6.56576,-25.93233 0.5745,-17.80283 0.63623,-18.25013 3.05415,-22.12899 4.41897,-7.08897 11.93711,-9.14277 19.70422,-5.38278 2.22861,1.07885 4.87074,3.3309 6.11664,5.21359 2.17639,3.28874 2.19779,3.53338 2.77156,31.67841 0.64065,31.42557 0.71966,31.84009 6.77264,35.53063 2.55932,1.56045 4.52601,1.77966 15.99272,1.78259 12.10535,0.003 13.30006,-0.14731 16.11695,-2.02911 4.17689,-2.79035 6.16198,-7.13673 6.22825,-13.6368 0.0923,-9.05394 1.21706,-13.67846 4.06396,-16.70925 2.94483,-3.13504 8.69555,-6.07413 11.94216,-6.10343 3.60718,-0.0325 9.83186,3.54471 12.17934,6.99933 l 2.20568,3.24596 v 68.32693 c 0,74.91568 0.10629,73.18216 -5.52549,90.11367 -14.92818,44.88039 -52.9782,79.50799 -98.48135,89.62342 -9.38364,2.086 -41.54361,2.62367 -51.57683,0.86229 z"
       id="path4764"
       inkscape:connector-curvature="0"
       sodipodi:nodetypes="scsssssscssssccscsscsccsccscscssscscccsscccssss" /><path
       style="fill:#ffffff"
       d="m 221.07812,42.726934 c -26.775,0 -47.81054,21.0385 -47.81054,47.812504 V 256.27344 c -38.25,-34.425 -80.324611,-61.19883 -107.099611,-34.42383 -38.25,38.25 42.073441,112.83583 103.273441,225.67383 43.988,78.412 105.18771,107.09961 166.38671,107.09961 89.888,0 162.56252,-72.67355 162.5625,-162.56055 v -114.75 c 0,-26.774 -21.03748,-47.8125 -47.8125,-47.8125 -11.475,0 -21.03649,3.8255 -28.6875,9.5625 0,-26.775 -21.03748,-47.8125 -47.8125,-47.8125 -11.475,0 -22.94871,3.82461 -32.51171,11.47461 -7.65,-19.125 -24.86328,-30.59961 -43.98829,-30.59961 -11.475,0 -21.03649,3.8255 -28.6875,9.5625 V 90.539438 c 0,-26.775004 -21.0375,-47.812504 -47.8125,-47.812504 z m 0.71876,32.230462 c 11.85823,0.159441 14.43806,9.593811 14.57421,17.113285 0.23013,12.709529 0.65625,35.426239 0.65625,92.825789 v 102.35938 c 10e-4,6.87178 5.57158,12.44216 12.44336,12.44336 h 9.8125 9.8125 c 6.83761,-10e-4 12.39388,-5.51804 12.44336,-12.35547 l 0.26172,-36.93359 c 0.12853,-18.17344 0.2216,-27.51959 0.47656,-32.08008 0.25497,-4.56049 -0.22125,-2.20982 0.70508,-4.22656 0.99143,-2.15847 6.95175,-8.00021 8.65235,-8.76172 1.79168,-0.80231 10.69157,-0.56782 11.65039,-0.10547 3.88123,1.87156 6.56325,4.448 8.30273,7.58789 v 0.002 l 1.15039,2.07617 0.39844,25.09571 0.44726,28.20507 c 0.10659,6.66668 5.44811,12.06505 12.11329,12.24219 l 9.51953,0.25196 9.51953,0.2539 c 6.89958,0.18333 12.63061,-5.28305 12.77344,-12.18359 l 0.36523,-17.71289 c 0.17258,-8.37645 0.34228,-12.80708 0.56445,-14.68164 0.22217,-1.87457 0.005,-0.99138 0.99414,-3.13477 4.24008,-9.18332 13.01338,-12.28228 21.14063,-8.28125 3.91141,1.92559 6.07336,4.03809 8.35547,8.625 0.84508,1.69856 0.31357,-0.50081 0.55273,2.72656 0.23916,3.22738 0.35564,10.21698 0.49219,23.54102 l 0.28125,27.5332 c 0.0708,6.82215 5.62084,12.31559 12.44336,12.31641 h 9.6875 9.68555 c 6.66,-10e-4 12.13887,-5.24488 12.43164,-11.89844 l 0.38281,-8.73047 c 0.38149,-8.69851 0.22339,-8.27214 5.1582,-13.05664 8.05019,-7.80496 19.64005,-5.74157 24.86328,4.8711 v -0.004 l 0.89063,1.81055 v 66.94531 c 0,64.60994 -0.1115,69.00906 -1.37305,74.80273 -11.80865,54.23126 -52.77535,95.20043 -105.52344,105.98438 -8.29483,1.69582 -31.02493,2.62965 -40.83398,1.52344 l -0.0195,-0.002 c -47.25729,-5.33515 -81.96932,-29.18715 -115.77539,-81.45117 -3.36368,-5.20024 -9.48275,-15.19893 -13.22266,-21.61523 -11.74631,-20.15231 -30.11797,-49.80932 -52.94531,-85.5 -36.972706,-57.80706 -44.857904,-72.812 -47.044923,-83.38868 -1.174248,-5.67879 -1.21646,-2.72025 -0.558594,-4.91601 0.520463,-1.73715 1.581195,-3.09113 7.169922,-2.03125 13.254685,2.51369 37.026355,17.95145 72.203125,52.42383 4.25679,4.17155 8.18944,7.95919 11.1543,10.75781 1.48243,1.39931 2.71083,2.54046 3.69531,3.42578 0.49224,0.44266 0.90269,0.80806 1.39453,1.21484 0.24592,0.2034 0.48219,0.40411 0.98828,0.76563 0.25305,0.18076 0.54622,0.39794 1.22852,0.78125 0.6823,0.38331 0.67095,1.61328 6.14453,1.61328 0.001,0 8.30413,-2.95146 9.60156,-4.52344 1.29743,-1.57197 1.62797,-2.5026 1.9082,-3.18164 0.56048,-1.35806 0.60791,-1.84567 0.69336,-2.25976 0.17091,-0.82819 0.1784,-1.08705 0.20508,-1.34571 0.0534,-0.51731 0.0629,-0.76824 0.0781,-1.06445 0.0305,-0.59241 0.05,-1.21125 0.0703,-2.00391 0.0406,-1.58531 0.0781,-3.79141 0.11328,-6.62304 0.0703,-5.66327 0.13273,-13.78913 0.18555,-23.8125 0.10563,-20.04674 0.16992,-47.66527 0.16992,-78.04883 0,-63.34704 0.97011,-88.09665 0.74414,-101.073849 -0.17698,-10.163584 5.29568,-15.268609 15.54689,-15.130775 z"
       id="path4570"
       inkscape:connector-curvature="0"
       sodipodi:nodetypes="sscscsssscscscssssscccccccscsccccccccccsccsscccccccccccsssccsssssssssccssccccsssssss" /></g><g
     inkscape:groupmode="layer"
     id="layer2"
     inkscape:label="Layer 2"
     style="display:inline"><g
       transform="translate(1152.6794,-39.740264)"
       id="g4775"><path
         d="m -994.32328,121.81884 c 0,-32.216287 27.12986,-59.34705 59.34703,-59.34705 32.21717,0 59.34616,27.129876 59.34616,59.34705 v 47.47728 c 10.17459,-13.56494 16.95618,-30.52111 16.95618,-47.47728 -8.9e-4,-42.389991 -33.91324,-76.302336 -76.30323,-76.302336 -42.38998,0 -76.30236,33.912345 -76.30236,76.302336 0,18.65223 6.7825,35.6084 16.95622,47.47728 z"
         id="path4766"
         style="fill:#ffffff;stroke-width:0.88659728"
         inkscape:connector-curvature="0" /><path
         style="fill:#ffffff;stroke-width:0.88659728"
         d="m -934.97792,85.258214 c -23.73864,0 -42.38869,18.652676 -42.38869,42.390436 v 131.85623 c -33.91229,-30.52111 -71.21549,-54.25872 -94.95419,-30.52008 -33.9123,33.91235 37.3022,100.03994 91.56192,200.0818 38.99964,69.51987 93.25913,94.95423 147.518,94.95423 79.69446,0 144.12749,-64.43217 144.12747,-144.12574 V 278.15805 c 0,-23.73776 -18.65177,-42.39043 -42.39043,-42.39043 -10.17371,0 -18.6509,3.39168 -25.43426,8.47808 0,-23.73864 -18.65177,-42.39043 -42.39043,-42.39043 -10.17371,0 -20.34627,3.39089 -28.8248,10.17336 -6.78247,-16.95617 -22.04371,-27.12953 -38.99989,-27.12953 -10.17371,0 -18.6509,3.39168 -25.43426,8.47809 v -65.72854 c 0,-23.73865 -18.65179,-42.390436 -42.39044,-42.390436 z m -1.43205,28.571986 c 0.59662,-0.001 1.27827,0.003 2.06931,0.003 3.68885,0 7.12828,1.55208 10.14564,5.25378 1.97848,2.42721 1.82556,2.12263 1.84246,2.16454 0.0169,0.0419 0.61501,2.12823 0.93335,7.75427 0.63669,11.25208 0.58183,16.32573 0.58183,67.21601 v 90.75155 c 8.9e-4,6.0925 4.93975,11.03118 11.03225,11.03225 h 8.69973 8.69974 c 6.06221,-8.9e-4 10.98838,-4.89228 11.03225,-10.95433 l 0.23204,-32.74522 c 0.11395,-16.11252 0.19647,-24.39879 0.42252,-28.44211 0.22605,-4.04332 -0.19616,-1.95922 0.62512,-3.74726 0.879,-1.91369 6.1634,-7.09296 7.67115,-7.76812 1.5885,-0.71132 9.47911,-0.50342 10.3292,-0.0935 3.44109,1.65932 5.81896,3.94359 7.36118,6.72741 v 0.002 l 1.01993,1.84073 0.35326,22.24979 0.39654,25.00653 c 0.0945,5.91066 4.83028,10.69684 10.73961,10.8539 l 8.43999,0.22338 8.43999,0.22511 c 6.11714,0.16254 11.19826,-4.68394 11.32489,-10.80194 l 0.32381,-15.7042 c 0.15301,-7.42654 0.30347,-11.35472 0.50044,-13.0167 0.19698,-1.66199 0.004,-0.87895 0.88141,-2.77928 3.75924,-8.1419 11.53762,-10.88943 18.74322,-7.34213 3.46785,1.70722 5.38463,3.58016 7.40794,7.6469 0.74924,1.50594 0.27801,-0.44402 0.49005,2.41736 0.21204,2.86139 0.31531,9.05835 0.43637,20.8714 l 0.24936,24.41086 c 0.0628,6.0485 4.98342,10.91897 11.03225,10.9197 h 8.58891 8.58718 c 5.90474,-8.9e-4 10.76229,-4.6501 11.02186,-10.54912 l 0.3394,-7.74042 c 0.33822,-7.71207 0.19805,-7.33405 4.57324,-11.57598 7.13728,-6.91985 17.41282,-5.09046 22.04372,4.31871 v -0.004 l 0.78963,1.60523 v 59.35353 c 0,57.28299 -0.0989,61.18324 -1.21734,66.31989 -10.46952,48.08129 -46.79049,84.40445 -93.5568,93.96547 -7.35417,1.50351 -27.50662,2.33144 -36.20329,1.35067 l -0.0173,-0.002 c -41.89819,-4.73013 -72.67378,-25.87725 -102.64615,-72.21438 -2.98223,-4.61052 -8.40738,-13.47533 -11.72317,-19.16401 -10.41425,-17.86698 -26.70253,-44.1608 -46.94115,-75.80406 -32.7799,-51.25159 -39.7709,-64.55492 -41.7099,-73.93218 -1.0411,-5.0348 -1.0785,-2.41177 -0.4952,-4.35852 0.4614,-1.54015 1.4019,-2.74059 6.3568,-1.8009 11.7516,2.22863 32.8274,15.9157 64.01506,46.47882 3.77406,3.69849 7.26074,7.0566 9.88937,9.53785 1.31432,1.24062 2.40342,2.25236 3.27625,3.03728 0.43642,0.39247 0.80033,0.71643 1.23639,1.07708 0.21803,0.18033 0.42751,0.35828 0.87621,0.6788 0.22435,0.16027 0.48427,0.35282 1.0892,0.69266 0.60492,0.33984 0.59486,1.43033 5.44772,1.43033 8.9e-4,0 7.36242,-2.61676 8.51272,-4.01047 1.1503,-1.39371 1.44335,-2.2188 1.6918,-2.82084 0.49692,-1.20405 0.53898,-1.63636 0.61474,-2.00349 0.15152,-0.73427 0.15816,-0.96378 0.18182,-1.19311 0.0473,-0.45864 0.0558,-0.68111 0.0692,-0.94373 0.027,-0.52523 0.0443,-1.07389 0.0623,-1.77666 0.036,-1.40554 0.0692,-3.36146 0.10043,-5.87197 0.0623,-5.02104 0.11768,-12.22541 0.16451,-21.1121 0.0937,-17.77339 0.15065,-42.2599 0.15065,-69.19788 0,-56.16331 -0.11693,-63.04766 0.65975,-74.52872 0.27878,-4.12074 0.72842,-5.99969 0.86409,-6.57847 -0.0876,0.0426 -0.0999,0.002 -0.0104,-0.16104 0.0779,-0.14199 0.0637,-0.0665 0.0104,0.16104 0.18241,-0.0888 0.85086,-0.71579 2.72387,-2.5888 3.95474,-3.95474 3.95017,-4.24143 8.12656,-4.25116 z"
         id="path4768"
         inkscape:connector-curvature="0"
         sodipodi:nodetypes="sscscsssscscscssssccsscccccccscsccccccccccsccsscccccccccccsssccsssssssssccssccccssssscccccs" /><path
         style="opacity:0.26499999;fill:#ff0000;fill-opacity:1;fill-rule:nonzero;stroke:none;stroke-width:1.09388363;stroke-linecap:round;stroke-linejoin:round;stroke-miterlimit:4;stroke-dasharray:none;stroke-opacity:1"
         d="m -856.43085,493.79837 c -36.72297,-6.44687 -64.53164,-26.35833 -90.88487,-65.07504 -3.26909,-4.80278 -12.84101,-20.16371 -21.27092,-34.13541 -8.4299,-13.97171 -22.10718,-36.12004 -30.39402,-49.21851 -43.32874,-68.48704 -48.49644,-77.3066 -52.05414,-88.83905 -2.502,-8.11037 -1.5791,-9.50165 5.4615,-8.23382 11.4636,2.06427 31.5761,16.24471 56.35718,39.73492 20.66003,19.58392 24.49683,22.80562 27.15978,22.80562 1.28628,0 4.11923,-0.76597 6.29544,-1.70215 7.2445,-3.1165 6.59217,6.47082 7.14913,-105.07026 0.27033,-54.14035 0.75997,-81.5654 1.08807,-82.77535 0.32809,-1.20995 2.21128,-3.62126 4.18485,-5.35847 3.08661,-2.71694 4.09991,-3.15613 7.24732,-3.14113 4.755,0.0226 9.69575,2.31133 12.01205,5.56426 1.6168,2.2706 1.92064,3.92779 2.4549,13.38945 0.33534,5.93896 0.632,30.08859 0.65925,75.49663 0.0486,80.93919 0.0805,82.61087 1.627,85.14733 3.05843,5.01622 5.36736,5.74219 18.26277,5.74219 12.8954,0 15.20433,-0.72597 18.26276,-5.74219 1.42742,-2.34114 1.57793,-4.02205 1.58226,-17.67035 0.003,-8.29569 0.23395,-23.47802 0.51403,-33.73849 l 0.50922,-18.6554 4.13124,-4.1677 c 3.93928,-3.97407 4.32487,-4.16769 8.29974,-4.16769 5.38321,0 9.19974,1.85838 11.75912,5.72588 l 2.04896,3.09619 0.46021,25.30104 c 0.43522,23.92845 0.54898,25.41992 2.09693,27.49225 3.76785,5.04424 4.99448,5.44174 17.67037,5.7262 11.13425,0.24986 11.77658,0.1785 14.43138,-1.60352 4.77277,-3.20367 5.2425,-5.05894 5.82118,-22.99153 0.50935,-15.78394 0.56408,-16.18052 2.7078,-19.6195 3.91785,-6.28506 10.58341,-8.10596 17.46971,-4.77236 1.97588,0.9565 4.31839,2.95317 5.423,4.62235 1.92958,2.91579 1.94855,3.13269 2.45726,28.08599 0.56799,27.86183 0.63804,28.22934 6.0046,31.50136 2.26909,1.3835 4.01275,1.57785 14.1791,1.58044 10.73257,0.003 11.7918,-0.1306 14.28925,-1.799 3.70322,-2.47392 5.46319,-6.3274 5.52195,-12.09035 0.0818,-8.0272 1.07904,-12.12728 3.60309,-14.81437 2.61088,-2.77952 7.70945,-5.38531 10.58789,-5.41129 3.19811,-0.0288 8.7169,3.14273 10.79817,6.20559 l 1.95555,2.87786 v 60.57847 c 0,66.42003 0.0942,64.8831 -4.89889,79.89453 -13.23528,39.79083 -46.97032,70.49157 -87.31329,79.45988 -8.31951,1.84944 -36.83245,2.32614 -45.72788,0.7645 z"
         id="path4770"
         inkscape:connector-curvature="0"
         sodipodi:nodetypes="scsssssscssssccscsscsccsccscscssscscccsscccssss" /></g></g></svg>